# xmcd
#
# Track frame offsets: 
#        150
#        23971
#        59892
#        87140
#        118387
#        143504
#        173901
#        195535
#        222400
#        249202
#
# Disc length: 3572 seconds
#
# Revision: 0
# Processed by: cddbd v1.5.2PL0 Copyright (c) Steve Scherf et al.
# Submitted via: ExactAudioCopy v1.3
#
DISCID=900df20a
DTITLE=Jeff Michaels - Gritty Music for Scrappy People
DYEAR=2018
DGENRE=Blues Rock
TTITLE0=Heard That Train
TTITLE1=I Can't Win
TTITLE2=Guitar Sittin' Right by Me
TTITLE3=Broken Clouds
TTITLE4=Gone Cold
TTITLE5=Leaving Los Angeles
TTITLE6=Guilty
TTITLE7=She's Gone
TTITLE8=Take Your Time
TTITLE9=Closin' Down
EXTD=
EXTT0=
EXTT1=
EXTT2=
EXTT3=
EXTT4=
EXTT5=
EXTT6=
EXTT7=
EXTT8=
EXTT9=
PLAYORDER=
